HIERARCHY
ROOT Hips
{
	OFFSET 0.00000 0.00000 0.00000
	CHANNELS 6 Xposition Yposition Zposition Zrotation Yrotation Xrotation 
	JOINT LHipJoint
	{
		OFFSET 0 0 0
		CHANNELS 3 Zrotation Yrotation Xrotation
		JOINT LeftHip
		{
			OFFSET 1.36306 -1.79463 0.83929
			CHANNELS 3 Zrotation Yrotation Xrotation
			JOINT LeftKnee
			{
				OFFSET 2.44811 -6.72613 0.00000
				CHANNELS 3 Zrotation Yrotation Xrotation
				JOINT LeftAnkle
				{
					OFFSET 2.56220 -7.03959 0.00000
					CHANNELS 3 Zrotation Yrotation Xrotation
					JOINT LeftToe
					{
						OFFSET 0.15764 -0.43311 2.32255
						CHANNELS 3 Zrotation Yrotation Xrotation
						End Site
						{
							OFFSET 0.00000 -0.00000 1.18966
						}
					}
				}
			}
		}
	}
	JOINT RHipJoint
	{
		OFFSET 0 0 0
		CHANNELS 3 Zrotation Yrotation Xrotation
		JOINT RightHip
		{
			OFFSET -1.30552 -1.79463 0.83929
			CHANNELS 3 Zrotation Yrotation Xrotation
			JOINT RightKnee
			{
				OFFSET -2.54253 -6.98555 0.00000
				CHANNELS 3 Zrotation Yrotation Xrotation
				JOINT RightAnkle
				{
					OFFSET -2.56826 -7.05623 0.00000
					CHANNELS 3 Zrotation Yrotation Xrotation
					JOINT RightToe
					{
						OFFSET -0.16473 -0.45259 2.36315
						CHANNELS 3 Zrotation Yrotation Xrotation
						End Site
						{
							OFFSET -0.00000 -0.00000 1.21082
						}
					}
				}
			}
		}
	}
	JOINT lowerback
	{
		OFFSET 0 0 0
		CHANNELS 3 Zrotation Yrotation Xrotation
		JOINT Chest
		{
			OFFSET 0.02827 2.03559 -0.19338
			CHANNELS 3 Zrotation Yrotation Xrotation
			JOINT Chest2
			{
				OFFSET 0.05672 2.04885 -0.04275
				CHANNELS 3 Zrotation Yrotation Xrotation
				JOINT lowerneck
				{
					OFFSET 0 0 0
					CHANNELS 3 Zrotation Yrotation Xrotation
					JOINT Neck
					{
						OFFSET -0.05417 1.74624 0.17202
						CHANNELS 3 Zrotation Yrotation Xrotation
						JOINT Head
						{
							OFFSET 0.10407 1.76136 -0.12397
							CHANNELS 3 Zrotation Yrotation Xrotation
							End Site
							{
								OFFSET 0.03720 1.77044 -0.06241
							}
						}
					}
				}
				JOINT LeftCollar
				{
					OFFSET 0 0 0
					CHANNELS 3 Zrotation Yrotation Xrotation
					JOINT LeftShoulder
					{
						OFFSET 3.36241 1.20089 -0.31121
CHANNELS 3 Zrotation Xrotation Yrotation
						JOINT LeftElbow
						{
OFFSET 0 -4.983000 -0.000000
CHANNELS 3 Zrotation Xrotation Yrotation
							JOINT LeftWrist
							{
OFFSET 0 -3.483560 -0.000000
CHANNELS 3 Zrotation Xrotation Yrotation
								JOINT lhand
								{
									OFFSET 0 0 0
CHANNELS 3 Zrotation Xrotation Yrotation
									JOINT LFingers
									{
OFFSET 0 -0.715260 -0.000000
CHANNELS 3 Zrotation Xrotation Yrotation
										End Site
										{
OFFSET 0 -0.576660 -0.000000
										}
									}
								}
								JOINT LThumb
								{
OFFSET 0 0.000000 0.000000
CHANNELS 3 Zrotation Xrotation Yrotation
									End Site
									{
OFFSET 0 -0.585470 0.585470
									}
								}
							}
						}
					}
				}
				JOINT RightCollar
				{
					OFFSET 0 0 0
					CHANNELS 3 Zrotation Yrotation Xrotation
					JOINT RightShoulder
					{
						OFFSET -3.13660 1.37405 -0.40465
CHANNELS 3 Zrotation Xrotation Yrotation
						JOINT RightElbow
						{
OFFSET 0 -5.241900 -0.000000
CHANNELS 3 Zrotation Xrotation Yrotation
							JOINT RightWrist
							{
OFFSET 0 -3.444170 -0.000000
CHANNELS 3 Zrotation Xrotation Yrotation
								JOINT rhand
								{
									OFFSET 0 0 0
CHANNELS 3 Zrotation Xrotation Yrotation
									JOINT RFingers
									{
OFFSET 0 -0.622530 -0.000000
CHANNELS 3 Zrotation Xrotation Yrotation
										End Site
										{
OFFSET 0 -0.501900 -0.000000
										}
									}
								}
								JOINT RThumb
								{
OFFSET 0 0.000000 0.000000
CHANNELS 3 Zrotation Xrotation Yrotation
									End Site
									{
OFFSET 0 -0.509560 0.509560
									}
								}
							}
						}
					}
				}
			}
		}
	}
}
MOTION
Frames: 11
Frame Time: .0083333
23.1604 18.1365 14.5682 -0.3641 -22.9187 3.9127 0.0000 0.0000 0.0000 -8.8087 -6.9963 -23.9933 1.3021 7.2291 20.3959 0.3616 3.5223 -13.2087 0.0520 1.4709 4.0455 0.0000 0.0000 0.0000 22.2307 -4.7479 2.3361 -0.8054 -5.7277 15.9963 0.4607 -16.8292 -18.8709 -4.3019 -12.5517 37.7126 1.1558 1.4180 11.4894 2.0773 2.0652 2.9442 1.2172 1.0056 -3.3975 -2.0325 0.9156 -8.8994 -7.3211 2.8037 16.7239 -1.7783 0.6064 6.6554 -0.0000 -0.0000 0.0000 2.0612 -1.7787 -10.9344 10.3743 -17.3229 1.5846 21.4829 2.9395 4.9579 0.0 0.0 0.0 -7.1250 0.0 0.0 -3.8800 24.6541 -1.912 -0.0000 -0.0000 0.0000 -10.6722 -8.1098 9.458 -10.7209 -17.8591 -1.6893 -22.4526 1.5391 22.1677 0.0 0.0 0.0 7.1250 0.0 -0.0 6.7459 53.6448 -1.439
23.1821 18.1246 14.6284 -0.4892 -22.5875 4.1618 0.0000 0.0000 0.0000 -8.5198 -7.1850 -23.9739 1.2371 7.0530 19.8725 0.3349 4.5383 -13.5546 0.0644 1.6376 4.5051 0.0000 0.0000 0.0000 22.2445 -4.8647 2.1981 -0.8258 -5.7978 16.1990 0.4404 -16.8198 -19.1158 -4.2654 -12.5054 37.5443 1.1917 1.4454 11.4425 2.0347 2.1085 2.7966 1.1457 1.0272 -3.5234 -2.2664 0.8943 -8.8922 -7.0418 2.7735 16.8655 -1.6533 0.5956 6.6923 0.0000 -0.0000 0.0000 2.06 -1.6242 -9.4283 10.0172 -16.7665 1.4799 21.9351 3.368 5.2066 0.0 0.0 0.0 -7.1250 0.0 0.0 -3.5409 24.3702 -1.7675 0.0000 -0.0000 0.0000 -10.599 -7.8041 9.8451 -11.2169 -18.62 -1.8446 -22.2295 1.2357 22.2196 0.0 0.0 0.0 7.1250 0.0 -0.0 6.9926 53.6564 -1.4941
23.1887 18.1146 14.6994 -0.5455 -22.2311 3.9690 0.0000 0.0000 0.0000 -8.3672 -7.3822 -23.6435 1.2287 7.0299 19.8041 0.3448 5.3382 -14.3427 0.0824 1.8518 5.0964 0.0000 0.0000 0.0000 22.1211 -5.4910 2.7315 -0.7814 -5.6436 15.7537 0.4676 -16.8721 -18.8599 -4.1755 -12.3904 37.1273 1.0769 1.4520 11.5506 1.9695 2.1034 2.8201 1.1408 1.0253 -3.5599 -2.2259 0.9287 -9.0107 -7.0035 2.8338 17.1376 -1.6443 0.6184 6.8020 0.0000 0.0000 0.0000 2.069 -1.3169 -7.92 9.8492 -16.5033 1.4318 22.2994 4.367 4.5543 0.0 0.0 0.0 -7.1250 0.0 0.0 -3.2705 25.0588 -1.5799 0.0000 0.0000 0.0000 -10.6046 -8.0444 10.1407 -11.0893 -18.425 -1.804 -21.9024 1.1251 21.7404 0.0 0.0 0.0 7.1250 0.0 -0.0 7.1605 53.0965 -1.4321
23.1917 18.0987 14.7854 -0.7617 -21.8154 3.6329 0.0000 0.0000 0.0000 -8.1415 -7.4231 -23.0842 1.2154 6.9932 19.6952 0.3719 5.8858 -15.1796 0.1631 2.6018 7.1721 0.0000 0.0000 0.0000 22.2307 -5.7705 3.5628 -0.7519 -5.5386 15.4513 0.5183 -17.2785 -18.9664 -4.0984 -12.2902 36.7665 1.2043 1.4671 11.5809 1.8952 2.1313 2.9749 0.9892 1.0384 -3.4079 -1.7757 1.0290 -8.9221 -7.3529 2.9659 17.2377 -1.8216 0.6803 6.8319 -0.0000 0.0000 0.0000 2.2806 -1.0628 -7.1346 9.6987 -16.267 1.3894 22.1712 5.2456 3.5682 0.0 0.0 0.0 -7.1250 0.0 0.0 -3.3753 26.1252 -1.5467 -0.0000 0.0000 0.0000 -10.3718 -7.9976 10.2134 -11.3101 -18.762 -1.8744 -21.6736 1.3808 21.8929 0.0 0.0 0.0 7.1250 0.0 -0.0 7.4457 53.2123 -1.5107
23.2044 18.0859 14.8768 -0.9921 -21.2965 3.3768 0.0000 0.0000 0.0000 -7.9781 -7.3303 -22.7192 1.2153 6.9929 19.6944 0.3780 6.3462 -15.6591 0.2109 2.9568 8.1585 0.0000 0.0000 0.0000 22.3918 -5.8358 4.4756 -0.7139 -5.3997 15.0522 0.5579 -17.7491 -19.3584 -4.1129 -12.3091 36.8344 1.4091 1.4427 11.5294 1.8996 2.1174 3.1157 0.8840 1.0312 -3.2253 -2.1881 0.8133 -8.6602 -7.0007 2.6408 16.9507 -1.6652 0.5432 6.6745 0.0000 -0.0000 0.0000 2.2789 -0.8916 -6.0408 9.4817 -15.9247 1.3292 21.8486 5.8871 3.2854 0.0 0.0 0.0 -7.1250 0.0 0.0 -3.6244 26.4375 -1.6347 0.0000 -0.0000 0.0000 -10.4056 -8.1985 10.4426 -11.3625 -18.8418 -1.8913 -22.1453 1.5057 21.7565 0.0 0.0 0.0 7.1250 0.0 -0.0 6.9191 53.1585 -1.3939
23.2882 18.1017 14.9004 -1.0400 -20.6625 4.6989 0.0000 0.0000 0.0000 -7.7687 -7.7917 -24.1095 1.2172 6.9982 19.7101 0.3389 7.1256 -15.8581 0.1801 2.7335 7.5377 0.0000 0.0000 0.0000 22.4928 -5.4673 3.5829 -0.6829 -5.2835 14.7190 0.6202 -18.1944 -19.4315 -4.0761 -12.2610 36.6617 1.9543 1.3171 11.1673 1.7254 2.0162 2.5916 0.4122 0.9766 -3.5465 -2.3002 0.8521 -8.3490 -7.0171 2.6719 16.5642 -1.6469 0.5705 6.4962 -0.0000 0.0000 0.0000 2.2065 -0.8143 -4.7009 9.3260 -15.6785 1.2868 21.2827 6.6768 3.1137 0.0 0.0 0.0 -7.1250 0.0 0.0 -4.0585 26.6341 -1.8127 -0.0000 0.0000 0.0000 -10.5431 -8.6422 10.7905 -11.3505 -18.8235 -1.8875 -22.2632 0.9401 21.0223 0.0 0.0 0.0 7.1250 0.0 -0.0 6.5583 52.414 -1.201
23.3132 18.0908 14.9870 -1.0278 -20.1837 4.7326 0.0000 0.0000 0.0000 -7.8866 -7.7956 -24.0867 1.2106 6.9799 19.6560 0.2984 7.8329 -16.0165 0.1075 2.1139 5.8205 0.0000 0.0000 0.0000 22.3818 -5.7069 3.8227 -0.6699 -5.2340 14.5771 0.7167 -18.7171 -19.2382 -3.8716 -11.9876 35.6882 2.0015 1.2862 10.9203 1.6324 1.9684 2.6441 0.3024 0.9548 -3.3511 -1.9271 1.0682 -8.2377 -7.4691 2.9857 16.5805 -1.8287 0.7106 6.5014 -0.0000 -0.0000 0.0000 2.2296 -0.5856 -4.0778 9.2751 -15.5977 1.2731 20.8698 6.8904 3.0396 0.0 0.0 0.0 -7.1250 0.0 0.0 -4.3751 26.7217 -1.9458 -0.0000 -0.0000 0.0000 -10.6224 -8.9946 11.2938 -11.3683 -18.8506 -1.8932 -21.9049 0.1458 20.7281 0.0 0.0 0.0 7.1250 0.0 -0.0 6.8249 52.0427 -1.188
23.3418 18.0806 15.0695 -1.0294 -19.8843 4.7715 0.0000 0.0000 0.0000 -8.0602 -7.5623 -24.0401 1.1934 6.9318 19.5135 0.2563 8.4682 -16.1215 0.0574 1.5462 4.2531 0.0000 0.0000 0.0000 22.1831 -6.1092 3.8320 -0.6746 -5.2522 14.6292 0.7759 -18.9255 -18.8843 -3.6699 -11.7077 34.7056 1.9985 1.3320 10.8880 1.5765 2.0292 2.5503 0.2373 0.9843 -3.4284 -2.4014 0.7986 -8.2899 -7.0230 2.6238 16.7019 -1.6371 0.5376 6.5282 0.0000 0.0000 0.0000 2.1508 -0.0542 -3.7862 9.3395 -15.6999 1.2905 20.2536 6.7126 3.1809 0.0 0.0 0.0 -7.1250 0.0 0.0 -4.8407 26.5835 -2.17 0.0000 0.0000 0.0000 -10.7154 -8.9368 11.884 -11.5801 -19.172 -1.9622 -21.7976 -0.1882 21.0872 0.0 0.0 0.0 7.1250 0.0 -0.0 7.0482 52.3978 -1.2886
23.3710 18.0767 15.1520 -1.0320 -19.5231 4.8091 0.0000 0.0000 0.0000 -8.4135 -6.7168 -24.2140 1.1815 6.8985 19.4151 0.2370 8.5115 -15.9083 0.0377 1.2539 3.4477 0.0000 0.0000 0.0000 22.0025 -6.2430 4.0772 -0.6701 -5.2349 14.5797 0.7231 -18.7970 -19.3206 -3.7693 -11.8470 35.1928 1.9933 1.3760 10.9314 1.5050 2.0893 2.4459 0.1552 1.0129 -3.5581 -2.4029 0.6875 -8.2869 -7.0036 2.4725 16.7364 -1.6430 0.4656 6.5343 -0.0000 -0.0000 0.0000 2.1461 0.3699 -3.4916 9.3585 -15.7299 1.2956 19.5563 6.5703 3.1383 0.0 0.0 0.0 -7.1250 0.0 0.0 -5.3728 26.6416 -2.403 -0.0000 -0.0000 0.0000 -10.7753 -8.8429 12.1972 -11.8908 -19.6406 -2.0654 -21.2668 -0.0137 21.8874 0.0 0.0 0.0 7.1250 0.0 -0.0 7.8566 53.131 -1.5792
23.3998 18.0743 15.2379 -1.0456 -19.1054 4.8462 0.0000 0.0000 0.0000 -8.7547 -6.0121 -24.3935 1.1790 6.8914 19.3941 0.1981 8.6575 -15.5353 0.0438 1.3500 3.7123 0.0000 0.0000 0.0000 21.8939 -6.0546 4.5395 -0.6595 -5.1942 14.4632 0.6579 -18.7530 -20.0650 -3.9429 -12.0841 36.0300 2.0434 1.4449 10.9118 1.4070 2.1838 2.3960 0.0121 1.0589 -3.5925 -2.3718 0.6411 -8.3443 -6.9420 2.4076 16.8592 -1.6345 0.4366 6.5812 -0.0000 0.0000 0.0000 2.1538 0.6328 -3.222 9.3304 -15.6855 1.288 19.2671 6.8063 2.9484 0.0 0.0 0.0 -7.1250 0.0 0.0 -5.6001 26.847 -2.4785 -0.0000 0.0000 0.0000 -10.8687 -9.0842 11.9127 -12.0009 -19.8059 -2.1026 -19.6704 0.9524 23.5917 0.0 0.0 0.0 7.1250 0.0 -0.0 10.1448 54.5743 -2.4049
23.4320 18.0709 15.3285 -1.0349 -18.7635 4.8834 0.0000 0.0000 0.0000 -8.9552 -6.0214 -24.3287 1.1895 6.9210 19.4815 0.1402 9.3333 -15.5083 0.0772 1.7927 4.9330 0.0000 0.0000 0.0000 21.7239 -5.9821 4.9678 -0.6376 -5.1088 14.2190 0.6926 -19.0709 -20.2711 -3.9282 -12.0642 35.9596 2.0865 1.5606 10.8517 1.3389 2.3386 2.3688 -0.1025 1.1353 -3.5810 -2.6034 0.4895 -8.4362 -6.7348 2.2176 17.0211 -1.5462 0.3408 6.6406 0.0000 0.0000 0.0000 2.0248 0.9183 -2.9347 9.3866 -15.7744 1.3032 18.9605 7.2365 3.1209 0.0 0.0 0.0 -7.1250 0.0 0.0 -5.8270 26.6706 -2.6041 0.0000 0.0000 0.0000 -10.9172 -9.1362 12.017 -12.0601 -19.8947 -2.1227 -21.0501 0.0883 22.3632 0.0 0.0 0.0 7.1250 0.0 -0.0 8.2490 53.5818 -1.7501
